<svg width="810px" height="540px" viewBox="0 0 285.75 190.5" version="1.1" id="svg5" xmlns="http://www.w3.org/2000/svg">
  <g id="layer1" transform="matrix(.75696 0 0 .72098 106.904 -19.668)">
    <g id="layer2">
      <path style="fill:none;stroke-width:.358148" id="rect108" d="M-141.93 27.279h378.319v263.079H-141.93z"/>
    </g>
    <style>
      .land{fill:#5fd364;stroke:#fff;stroke-width:1.5;stroke-miterlimit:4}path:hover{opacity:.5}
    </style>
    <path id="baritoselatan" class="land bs" d="M188.14 203.812c-1.052-1.164-4.36-2.963-8.412-4.577-2.992-1.192-4.007-1.788-5.14-3.016-.776-.843-1.411-1.858-1.411-2.256 0-1.06.915-3.076 1.96-4.318.603-.717.846-1.339.72-1.842-.277-1.103.399-3.258 1.718-5.479.635-1.067 1.256-2.372 1.38-2.9.372-1.57-.318-3.706-1.685-5.22-1.153-1.276-1.271-1.598-1.271-3.46 0-4.485 1.915-7.348 5.82-8.7a211.594 211.594 0 0 0 3.881-1.385c1.65-.618 5.044-.7 7.056-.172.776.204 5.177.482 9.78.617 5.344.157 8.51.388 8.76.638.287.287.125.644-.607 1.338-1.193 1.13-2.024 1.585-5.057 2.773-2.05.803-3.299 1.144-8.71 2.376-.814.186-2.1.337-2.857.337-1.748 0-2.22.551-3.236 3.785-.457 1.453-1.391 3.339-2.172 4.385-.753 1.01-1.37 1.986-1.37 2.17 0 .183-1.357 1.655-3.016 3.27l-3.016 2.936.543 1.051c.299.578 1.164 1.4 1.923 1.826 1.46.82 1.95 1.524 2.423 3.48.231.955.732 1.488 2.394 2.55a536.17 536.17 0 0 1 3.24 2.087c1.284.838 3.624 3.849 3.624 4.664 0 .294-.58.908-1.29 1.363-4.3 2.762-4.85 2.917-5.971 1.679z"/>
    <path id="baritotimur" class="land bt" d="M195.659 198.993c-1.267-2.046-3.575-4.064-6.585-5.755-1.343-.756-1.7-1.187-2.155-2.606-.324-1.011-.944-2.004-1.528-2.447-2.006-1.521-3.036-2.643-2.844-3.099.108-.258 1.06-1.16 2.114-2.006 2.124-1.703 5.789-6.92 6.712-9.556 1.104-3.15 1.527-3.879 2.343-4.03.442-.082 2.233-.391 3.979-.686 4.175-.706 5.888-1.15 8.589-2.223 1.23-.49 2.462-.805 2.736-.7.53.204.417.567-1.752 5.68-1.334 3.144-1.527 5.389-.61 7.09.408.757 1.045 1.773 1.416 2.258 1.34 1.75 1.284 2.395-.334 3.89-1.614 1.49-1.664 1.872-.67 5.128.773 2.534-.54 5.009-2.454 4.626-.79-.158-1.258.127-2.874 1.744-1.768 1.772-4.443 3.662-5.18 3.662-.167 0-.573-.436-.903-.97z"/>
    <path id="baritoutara" class="land bu" d="M179.383 161.108c-.083-.264-.25-1.57-.37-2.902-.28-3.085-1.138-4.771-2.947-5.788-1.615-.907-3.168-3.363-4.064-6.43-.312-1.067-1.299-3.184-2.192-4.704-.894-1.52-1.544-2.975-1.445-3.232.099-.258 1.103-.93 2.231-1.493a107.896 107.896 0 0 0 4.521-2.445 572.06 572.06 0 0 1 6.35-3.567c2.134-1.182 4.674-2.594 5.644-3.139.97-.545 2.257-1.174 2.86-1.4 1.808-.674 5.404-3.63 6.117-5.029 1.114-2.184 1.783-6.362 1.783-11.135 0-2.707.137-4.425.352-4.425.193 0 .947-.535 1.676-1.188 1.736-1.558 5.106-3.436 5.595-3.12.522.34 1.197 1.665 1.197 2.352 0 .308-.387 1.152-.859 1.875-.472.724-.968 1.95-1.103 2.727-.134.776-.443 1.649-.686 1.94-.857 1.027-1.076 3.19-.616 6.081.284 1.785.53 2.224 2.079 3.709 2.554 2.449 3.693 5.45 3.915 10.318.093 2.038.312 3.882.487 4.098.175.217 1.253.592 2.396.835 2.889.613 3.892 1.387 5.134 3.961 1.025 2.125 1.135 2.227 2.577 2.42 1.869.25 2.123.503 2.262 2.262.097 1.216.254 1.447 1.17 1.717 1.82.537 2.114.797 2.23 1.977l.114 1.147 1.584-.237c2.887-.433 3.601 1.323 1.1 2.703-1.392.767-1.516.956-1.721 2.636-.122.996-.324 1.975-.448 2.176-.124.2-1.1.692-2.167 1.091-2.34.876-5.12 2.264-6.923 3.457-1.325.877-1.338.878-4.957.438-1.995-.243-6.486-.477-9.978-.52-4.438-.056-7.2-.263-9.172-.69-3.378-.731-6.11-.523-8.98.685-2.68 1.128-4.55 1.459-4.746.84z"/>
    <path id="gunungmas" class="land gm" d="M122.55 161.857c-.932-1.84-3.15-4.501-8.332-9.995-4.983-5.285-7.363-7.955-7.363-8.261 0-.159 1.312-1.631 2.916-3.272 2.45-2.507 3.243-3.632 4.963-7.04 1.735-3.44 2.123-4.568 2.55-7.409.844-5.635.563-7.605-1.398-9.815-1.707-1.921-1.788-2.421-.591-3.618 1.59-1.59 2.323-1.367 5.453 1.654 1.53 1.476 3.435 2.98 4.234 3.343 1.63.74 5.91.915 7.966.326.671-.193 1.353-.215 1.519-.05.165.166-.377 1.667-1.207 3.34l-1.507 3.039.997 1.04c.63.658 1.923 1.343 3.514 1.86 1.926.628 2.987 1.25 4.518 2.65 1.292 1.182 2.542 1.976 3.528 2.241 3.047.82 2.985.755 3.234 3.395.352 3.726.274 13.211-.126 15.318-.254 1.34-.69 2.237-1.499 3.085-1.68 1.76-7.862 5.709-10.41 6.648-1.218.45-2.815 1.123-3.55 1.498-1.771.904-5.278 1.793-7.07 1.793-1.377 0-1.483-.08-2.34-1.77z"/>
    <path id="kapuas" class="land kp" d="M162.775 247.246c-.666-1.289-1.524-1.774-3.136-1.774-.68 0-1.338-.163-1.46-.361-.123-.199-.381-1.985-.574-3.969-.193-1.984-.563-4.442-.823-5.461-.453-1.777-.438-1.894.356-2.823 4.418-5.166 5.038-6.34 4.421-8.364-.687-2.256-.996-5.207-.67-6.404.166-.605 1.01-2.179 1.875-3.497 2.28-3.472 2.778-5.238 2.572-9.125-.183-3.439-1.914-9.325-3.695-12.56-1.103-2.003-1.852-5.456-1.876-8.643-.038-5.065-2.174-10.742-5.259-13.976-3.238-3.395-4.206-6.505-4.244-13.632-.015-2.75-.076-2.977-1.08-4.027-.922-.965-1.03-1.28-.82-2.378.345-1.804.263-14.683-.107-16.787-.302-1.72-.346-1.77-1.717-1.969-2.198-.319-3.803-1.162-5.513-2.897-1.25-1.268-2.093-1.755-4.082-2.36-3.046-.925-3.808-1.639-3.474-3.255.333-1.608 2.717-5.36 3.502-5.512 1.91-.367 3.203.353 6.565 3.653 4.503 4.42 5.45 4.75 8.999 3.124l2.02-.925 1.025 1.024c.839.84 1.12 1.574 1.554 4.059.577 3.302 1.623 6.65 2.493 7.979.758 1.157 2.574 1.841 4.884 1.841 1.934 0 1.945.006 3.32 1.867 1.524 2.063 3.23 5.241 3.23 6.018 0 .275.627 1.756 1.395 3.29 1.127 2.25 1.673 2.945 2.826 3.593 1.977 1.111 2.557 2.426 2.746 6.22.154 3.094.13 3.22-.936 4.765-1.39 2.018-2.151 4.519-2.151 7.07 0 1.842.116 2.135 1.445 3.645.989 1.123 1.503 2.076 1.63 3.016.188 1.402.047 1.794-1.808 5.028-.52.907-1.101 2.618-1.292 3.802-.199 1.233-.78 2.865-1.358 3.819-1.933 3.183-1.803 4.35.785 7.04 1.025 1.064 2.063 1.7 3.62 2.218 3.327 1.107 8.666 3.934 9.445 5.001.675.924.677.999.075 2.577-.432 1.13-1.04 1.902-1.995 2.535-1.252.828-1.375 1.048-1.375 2.461 0 .854-.228 2.097-.506 2.763-.527 1.263-1.03 1.501-3.514 1.671-1.294.089-1.401.184-1.83 1.643-.308 1.05-.969 2.015-2.051 2.998-2.074 1.884-4.937 7.293-5.53 10.446-.409 2.177-1.128 3.699-2.95 6.24-.442.618-1.32 3-1.948 5.292-1.474 5.368-1.964 6.02-3.009 4.001z"/>
    <path id="katingan" class="land kt" d="M120.099 238.547c-.962-1.276-2.402-2.855-3.2-3.508-1.045-.857-1.954-2.2-3.262-4.815-3.531-7.063-4.064-10.974-2.194-16.097.583-1.598 1.337-3.329 1.675-3.846.517-.79.616-1.795.616-6.247v-5.305l1.675-3.152c1.575-2.962 1.676-3.314 1.676-5.827 0-3.152-.749-4.576-3.344-6.362-1.734-1.193-3.313-3.29-4.822-6.407-.69-1.425-1.334-2.214-2.143-2.628-3.365-1.722-7.095-6.054-8.708-10.113-1.925-4.847-5.6-11.28-6.814-11.926-.248-.132-1.194-.348-2.101-.479-.908-.13-2.508-.54-3.556-.908-2.335-.82-5.15-.53-8.92.921-1.805.695-3.072.94-4.789.927-2.633-.02-3.838-.517-5.473-2.259-1.344-1.431-1.73-2.653-2.214-7.006-.205-1.848-.77-4.524-1.253-5.947-.903-2.656-.857-3.283.317-4.257.3-.249.712-1.07.914-1.823.203-.753.562-1.38.797-1.393a214.51 214.51 0 0 1 2.528-.088c2.046-.063 2.107-.094 2.325-1.154.327-1.589.617-1.91 1.725-1.91 1.22 0 1.688.528 2.058 2.321.247 1.198.425 1.397 1.33 1.484.716.07 1.65-.29 2.973-1.146 1.06-.686 2.102-1.248 2.314-1.248.712 0 1.527.875 1.642 1.76.163 1.273 1.177 1.285 2.604.032 1.055-.926 1.518-1.086 3.14-1.086 1.944 0 3.012-.573 3.012-1.617 0-.28.881-.898 1.958-1.375 1.077-.476 2.375-1.194 2.885-1.595.752-.591 1.217-.685 2.466-.498 1.11.166 1.706.087 2.141-.286 1.246-1.066 3.779-1.764 6.601-1.819 2.25-.043 3.119-.223 4.287-.887 1.31-.745 1.681-.8 3.527-.523l2.064.31.107 1.471c.216 2.972-.86 6.96-2.995 11.087-1.71 3.307-2.475 4.354-5.012 6.85-2.781 2.739-2.966 3.01-2.602 3.808.215.472 2.667 3.317 5.447 6.322 6.45 6.969 7.454 8.26 9.266 11.913.818 1.65 1.89 3.636 2.382 4.415 1.86 2.942 2.75 5.137 3.308 8.162.317 1.717.754 3.594.97 4.17.532 1.422 2.713 4.03 6.186 7.399 4.212 4.084 4.738 5.328 4.919 11.628.109 3.78.004 5.563-.436 7.44-.605 2.573-2.36 6.12-4.146 8.378-1.087 1.373-1.478 2.481-1.858 5.267a6.265 6.265 0 0 1-1.266 2.96c-.898 1.129-1.04 1.605-1.037 3.465.002 1.186.24 2.936.53 3.888 1.188 3.92.521 6.11-2.087 6.847-1.31.37-2.202.982-3.744 2.568-1.114 1.145-2.164 2.079-2.333 2.074-.169-.005-1.094-1.053-2.056-2.33z"/>
    <path id="kotawaringinbarat" class="land kb" d="M52.647 251.626c-.116-.301.034-1.135.333-1.852 1.205-2.891 1.42-4.618 1.212-9.751l-.204-5.046 1.032-2.073c.567-1.14 1.032-2.317 1.033-2.615.002-.534-2.197-2.569-3.83-3.546-.458-.274-1.129-1.176-1.49-2.004-.361-.83-.885-1.595-1.164-1.702-.906-.348-2.694.862-2.916 1.974-.145.725-.74 1.397-2.02 2.278-.997.687-2 1.25-2.228 1.25-.227 0-.757-.483-1.176-1.072-.42-.589-1.343-1.344-2.053-1.677-.845-.397-1.33-.886-1.405-1.42-.178-1.254-1.04-1.33-2.226-.199l-1.065 1.016-.678-.833c-.559-.686-.678-1.4-.678-4.054 0-3.133.035-3.272 1.294-5.1 1.593-2.312 1.673-4.198.315-7.424-.702-1.668-.883-2.638-.815-4.368.073-1.854-.044-2.393-.706-3.235-1.002-1.276-.994-1.58.088-3.175.485-.714.882-1.769.882-2.342 0-1.722 1.078-2.47 3.442-2.39 2.77.094 4.197-.617 6.047-3.015 2.187-2.836 2.281-3.928 1.151-13.453-.275-2.319-.603-3.294-1.839-5.468-3.07-5.403-2.93-4.927-2.308-7.831.303-1.417.593-3.21.645-3.987.104-1.562.078-1.556 2.564-.576.97.383 2.478.904 3.351 1.159.873.255 2.118.947 2.767 1.538 1.071.976 1.255 1.454 1.997 5.184 1.06 5.328 1.094 5.424 2.298 6.282 1.7 1.21 2.494 2.66 2.851 5.203.24 1.712.627 2.787 1.384 3.845.93 1.3 1.05 1.758 1.05 3.985 0 2.664.209 3.05 2.51 4.64.737.51.777.669.391 1.517-.92 2.018-.333 4.757 1.166 5.44.617.28.898.823 1.164 2.243.712 3.81 1.164 7.923.964 8.766-.114.478-.431 4.52-.706 8.982-.328 5.337-.689 8.643-1.054 9.658-.305.849-.556 2.04-.558 2.646-.002.606-.252 1.896-.556 2.866-.304.97-1.233 4.007-2.065 6.75-1.226 4.038-1.85 5.48-3.282 7.584-.972 1.43-2.19 3.353-2.708 4.275-.949 1.691-1.814 2.135-2.201 1.127z"/>
    <path id="kotawaringintimur" class="land kt" d="M96.271 240.964c0-.733-.27-1.718-.6-2.19-.783-1.118-1.075-6.425-.457-8.3.24-.727.94-1.897 1.557-2.6 4.222-4.812 3.085-6.624-7.379-11.764-3.295-1.618-3.46-1.794-4.548-4.868-.311-.878-1.116-2.116-1.788-2.75-1.266-1.194-1.396-1.608-1.786-5.706-.311-3.266-1.143-4.869-3.676-7.082-2.924-2.555-3.809-4.117-4.081-7.206-.38-4.305-.835-5.713-2.47-7.628-1.882-2.205-4.505-6.637-5.252-8.877-.88-2.634-.715-6.744.512-12.75.592-2.897 1.156-5.395 1.253-5.551.096-.157 1.557-.188 3.245-.068 2.834.2 3.312.131 6.244-.893 4.326-1.513 6.243-1.7 8.466-.827.97.381 2.524.804 3.453.94 1.561.228 1.81.412 3.29 2.428 1.872 2.548 3.229 5.118 4.928 9.332 1.773 4.399 4.679 7.96 8.28 10.147 1.564.95 2.155 1.558 2.602 2.674.953 2.381 3.28 5.505 4.965 6.664 2.347 1.615 3.35 3.285 3.35 5.575 0 1.582-.296 2.457-1.852 5.466l-1.852 3.582v5.124c0 3.413-.145 5.376-.434 5.882-.24.417-.993 2.301-1.676 4.187-.92 2.54-1.24 3.989-1.234 5.591.007 1.939.945 5.914 2.084 8.827.847 2.168-.782 1.537-3.18-1.23-2.288-2.643-3.528-5.78-3.817-9.664-.243-3.269-.78-3.72-2.444-2.056-.75.75-1.053 1.467-1.222 2.886-.251 2.125.405 3.833 2.314 6.02 2.194 2.515 2.69 6.006 1.241 8.74l-.785 1.483.813 1.1c.447.604.726 1.323.621 1.597-.313.817-7.299 5.098-8.318 5.098-.202 0-.367-.6-.367-1.333z"/>
    <path id="lamandau" class="land lm" d="M37.804 190.728c-.223-.27-.567-.914-.765-1.434-.302-.794-.637-.981-2.112-1.177-1.511-.2-1.812-.376-2.185-1.276-.7-1.689-1.654-2.11-3.84-1.696-5.065.96-10.956-.098-11.234-2.018-.06-.418.162-1.175.494-1.682.454-.693.503-1.02.198-1.326-.626-.625-.485-1.375.442-2.361.707-.753.867-1.34.97-3.547l.123-2.646-1.048-.12c-.576-.065-1.912.173-2.968.53-1.52.513-1.952.552-2.074.188-.085-.253-.56-.834-1.053-1.292l-.897-.832 1.015-.942c.559-.517 1.836-1.329 2.838-1.803 1.54-.728 1.963-.798 2.726-.45.74.337 1.068.303 1.822-.191.612-.401 1.258-.528 1.931-.38.823.18 1.12.06 1.581-.645.354-.54.485-1.201.348-1.749-.122-.485-.054-.984.153-1.112.54-.333 1.714.388 1.976 1.213.36 1.138 1.235.865 1.235-.386 0-.601.328-1.554.73-2.117.586-.824.992-1.025 2.073-1.025 1.563 0 2.09-.505 2.378-2.277.152-.94.476-1.422 1.211-1.802.552-.285 1.252-1 1.556-1.586.837-1.62 3.34-2.293 3.34-.9 0 .283.38.965.844 1.516.807.96.829 1.123.512 3.82-.833 7.083-.853 6.702.472 8.913 2.051 3.423 3.075 5.823 3.268 7.662 1.024 9.74 1.011 9.181.246 10.816-1.187 2.538-2.877 4.198-4.495 4.415-.96.128-1.534.033-1.81-.301z"/>
    <path id="murungraya" class="land mr" d="M161.497 136.665c-1.42-.81-2.86-4.55-3.447-8.954-.25-1.878-.594-2.907-1.267-3.79-1.209-1.584-2.216-1.808-4.012-.891-2.95 1.505-5.16.723-8.875-3.14-2.908-3.024-3.97-3.53-7.422-3.533-1.075-.001-2.9.25-4.057.556-2.84.754-5.005.46-7.699-1.047-2.321-1.298-6.415-5.264-6.047-5.858.12-.196.712-.356 1.314-.356.865 0 1.532-.438 3.196-2.102 1.942-1.942 2.084-2.191 1.863-3.263-.295-1.431-.293-2.183.01-3.959.179-1.046.059-1.74-.487-2.822-.399-.79-.904-2.334-1.123-3.431-.392-1.968-.43-2.015-2.73-3.352-1.284-.745-2.347-1.514-2.364-1.708-.06-.706 2.431-1.587 4.49-1.587 2.443 0 2.993-.26 5.549-2.611 1.075-.99 3.06-2.363 4.41-3.053 2.408-1.229 2.456-1.281 2.564-2.756.096-1.315.297-1.636 1.606-2.558.824-.58 2.182-1.914 3.02-2.963 1.777-2.228 2.482-2.507 6.963-2.76 1.908-.108 3.672-.41 4.304-.737 1.44-.745 5.1-.745 5.844 0 .446.446.51 1.03.328 2.99-.314 3.385-.048 3.653 3.317 3.338 2.378-.223 2.757-.163 4.573.726l1.981.969.734-.92c.404-.505 1.369-1.183 2.145-1.507.776-.323 2.177-1.198 3.114-1.943.936-.745 2.592-1.687 3.678-2.094 1.087-.407 2.52-1.217 3.185-1.8 1.19-1.045 1.25-1.057 3.99-.819l2.781.243 1.417-1.28c.779-.704 1.566-1.28 1.748-1.28.183 0 .75.36 1.26.798.733.63 1.024 1.356 1.39 3.468.59 3.398 1.178 4.506 3.603 6.8 1.743 1.648 1.999 2.072 2.265 3.758.247 1.56.197 2.014-.28 2.542-.845.933-4.078 1.765-6.7 1.726-2.76-.041-3.898.489-5.166 2.405-.522.789-1.108 1.434-1.302 1.434-.768 0-1.751 2.302-1.752 4.102-.001 2.096.232 2.364 2.847 3.252 2.769.941 3.269 1.805 3.493 6.03.208 3.922.631 4.734 2.665 5.115.86.162 1.603.02 2.63-.505 1.859-.948 1.886-.868 1.714 5.034-.108 3.695-.264 4.85-.746 5.539-.336.479-.61 1.26-.61 1.734 0 1.184-2.56 3.572-5.161 4.814-1.14.544-2.31 1.179-2.6 1.41-.291.232-2.91 1.65-5.821 3.152-2.91 1.502-5.53 2.937-5.821 3.189-.291.252-2.21 1.34-4.263 2.419-3.366 1.768-4.008 1.98-6.526 2.16-2.115.152-3.016.073-3.713-.324z"/>
    <path id="pulangpisau" class="land pp" d="M132.403 248.889c-.84-.722-.899-.91-.516-1.626.456-.852 1.422-6.208 1.425-7.895 0-.682-.387-1.343-1.252-2.135-1.132-1.037-1.216-1.241-.881-2.122.526-1.385.458-4.054-.155-6.076-.814-2.682-.7-5.18.292-6.379 1.027-1.24 1.644-3 1.644-4.685 0-.965.406-1.86 1.615-3.563 1.843-2.594 3.396-5.508 4.033-7.565.24-.777.536-4.031.658-7.232l.22-5.821 4.083-.223c4.655-.254 5.37-.373 9.5-1.583 3.916-1.148 4.762-1.587 4.762-2.474 0-.78-3.097-3.716-7.765-7.362-1.49-1.164-2.91-2.513-3.156-2.999-.282-.558-.384-1.685-.277-3.073.22-2.872.002-3.612-1.667-5.638-2.898-3.52-3.202-3.945-3.883-5.447-.77-1.695-.898-3.689-.361-5.62.262-.943.723-1.466 1.85-2.096.825-.462 2.31-1.603 3.299-2.536.988-.932 1.977-1.695 2.195-1.695.786 0 1.475 2.071 1.49 4.48.043 6.636 1.09 9.863 4.362 13.44 3.254 3.557 5.14 8.61 5.154 13.807.008 3.057.805 6.698 1.874 8.568 1.618 2.827 3.361 8.672 3.608 12.092.199 2.758.128 3.443-.54 5.21-.424 1.118-1.157 2.493-1.63 3.055-.473.562-1.275 1.93-1.783 3.04-.795 1.736-.895 2.324-.716 4.237.114 1.222.45 2.8.746 3.51.497 1.188.487 1.387-.127 2.583-.366.713-1.648 2.464-2.85 3.89l-2.183 2.595.597 2.345c.328 1.289.682 3.934.786 5.878.156 2.942.095 3.611-.367 3.995-.466.387-.73.33-1.656-.354-.851-.63-1.675-.843-3.637-.942-3.034-.153-5.458.76-8.003 3.012-2.327 2.06-2.795 2.22-6.484 2.22-2.998 0-3.456-.087-4.304-.816z"/>
    <path id="sukamara" class="land sk" d="M15.132 230.07a55.082 55.082 0 0 1-2.182-.854c-.909-.373-2.366-.678-3.238-.678-1.485 0-2.694-.633-2.694-1.41 0-.685 1.104-1.322 2.66-1.535 1.107-.152 2.047-.572 2.843-1.27 1.059-.93 1.304-1.003 2.257-.671 1.429.498 1.994.221 2.623-1.283.572-1.37 2.719-2.628 4.51-2.642.525-.004 1.835-.337 2.91-.739 1.643-.615 1.953-.869 1.953-1.6 0-.694-.32-1.006-1.584-1.548l-1.583-.679.214-2.046c.176-1.69.022-2.665-.886-5.61-.605-1.96-1.1-4.146-1.1-4.858 0-.713-.397-2.08-.882-3.036-1.105-2.18-1.106-2.842-.005-3.876 1.164-1.094 1.439-2.727.74-4.4-.691-1.653-.71-2.527-.06-2.777.275-.105.714-.638.976-1.184.434-.905.647-.995 2.411-1.015 1.064-.012 2.926-.154 4.137-.314l2.202-.293.572 1.373c.679 1.63 1.018 1.89 2.478 1.897.607.003 1.29.23 1.517.504.332.4.133.758-1.015 1.82-1.114 1.03-1.43 1.579-1.43 2.485 0 .658-.382 1.726-.881 2.462-1.066 1.57-1.132 3.257-.177 4.472.541.688.706 1.431.706 3.188 0 1.7.226 2.776.878 4.177 1.255 2.695 1.165 4.306-.372 6.662l-1.257 1.928.11 4.58.112 4.578-3.352 1.733c-3.03 1.567-3.722 1.777-7.232 2.197-4.057.485-5.989.559-6.879.262z"/>
    <path id="seruyan" class="land sr" d="M55.582 252.789c-.565-.413-.537-.579.4-2.381.555-1.066 1.83-3.117 2.834-4.558 1.003-1.441 1.825-2.838 1.825-3.103 0-.674 3.497-12.083 3.972-12.96.215-.396.515-2.148.667-3.894.153-1.747.472-5.319.71-7.938.593-6.548.581-14.735-.027-18.123-.438-2.442-.661-2.939-1.852-4.117-1.456-1.442-1.66-2.403-.825-3.866.864-1.51.632-2.217-1.069-3.25l-1.576-.956v-2.406c0-2.136-.135-2.616-1.196-4.264-.824-1.277-1.275-2.483-1.448-3.865-.314-2.516-1.198-4.274-2.807-5.583-1.292-1.052-1.598-1.919-2.664-7.554-.555-2.93-1.43-4.097-3.974-5.3-1.21-.572-2.493-1.04-2.853-1.04-1.165-.001-5.4-2.458-5.819-3.376-.33-.726-.28-.984.305-1.57.385-.384 1.157-.7 1.715-.7 1.23 0 1.988-.736 1.383-1.341-.309-.309-.291-.626.072-1.304.368-.689.383-.993.063-1.313-.684-.683-.479-1.222.642-1.686.77-.318 1.058-.675 1.058-1.304 0-1.123 3.558-4.89 5.068-5.366.608-.191 1.89-.458 2.848-.593.959-.135 2.586-.631 3.616-1.103l1.874-.858v-1.738c0-1.48.1-1.738.68-1.738 1.635 0 3.577 4.825 4.26 10.583.51 4.307.843 5.322 2.336 7.109.714.855 1.14 1.686 1.022 1.995-.304.79-1.142 4.46-1.757 7.689-.727 3.818-.713 9.495.028 11.678.806 2.373 2.876 5.905 4.585 7.823 2.113 2.37 2.586 3.537 2.937 7.248.173 1.829.585 3.896.917 4.594.33.697 1.758 2.303 3.171 3.568 3 2.684 3.533 3.774 3.885 7.936.28 3.318.472 3.834 2.108 5.665.627.7 1.403 2.067 1.724 3.036.746 2.244 1.482 2.914 5.156 4.69 4.433 2.145 6.382 3.335 7.71 4.709 1.628 1.684 1.458 2.22-2.073 6.578-1.445 1.784-1.645 8.064-.364 11.434.94 2.471-.28 3.945-4.3 5.192-1.218.378-2.806 1.096-3.528 1.595-1.497 1.034-2.456.953-4.04-.343-.549-.45-1.87-1.361-2.938-2.027-1.904-1.19-2.011-1.211-5.836-1.213-3.118 0-4.07.12-4.762.606-.477.334-1.66 1.177-2.63 1.872-.97.695-2.32 1.635-3 2.088-.678.453-2.306 1.873-3.617 3.156-2.438 2.386-3.397 2.778-4.616 1.887z"/>
    <path id="palangkaraya" class="land pk" d="M138.452 190.922c-.662-1.448-2.042-3.145-5.09-6.262-2.3-2.352-4.428-4.755-4.729-5.342-.3-.586-.79-2.49-1.09-4.233-.404-2.366-.962-3.999-2.2-6.45-.93-1.842-1.519-3.404-1.342-3.558.174-.152 1.665-.553 3.315-.891 1.649-.339 4.189-1.136 5.644-1.772 1.455-.636 3.202-1.363 3.88-1.615.68-.253 1.386-.593 1.57-.756.879-.776 1.253-.262 1.26 1.732.01 2.574.681 4.042 3.641 7.965 2.66 3.526 2.882 4.116 2.567 6.801-.31 2.627.184 3.429 3.906 6.349 4.189 3.287 7.284 6.537 6.712 7.05-.631.566-6.4 2.186-9.248 2.597-1.359.196-3.689.36-5.178.364l-2.708.007z"/>
  </g>
</svg>
