<?xml version="1.0" encoding="UTF-8" standalone="no"?>
<!-- Created with Inkscape (http://www.inkscape.org/) -->

<svg
   width="210mm"
   height="297mm"
   viewBox="0 0 210 297"
   version="1.1"
   id="svg5"
   inkscape:version="1.1.2 (b8e25be833, 2022-02-05)"
   sodipodi:docname="logo.svg"
   xmlns:inkscape="http://www.inkscape.org/namespaces/inkscape"
   xmlns:sodipodi="http://sodipodi.sourceforge.net/DTD/sodipodi-0.dtd"
   xmlns="http://www.w3.org/2000/svg"
   xmlns:svg="http://www.w3.org/2000/svg">
  <sodipodi:namedview
     id="namedview7"
     pagecolor="#ffffff"
     bordercolor="#666666"
     borderopacity="1.0"
     inkscape:pageshadow="2"
     inkscape:pageopacity="0.0"
     inkscape:pagecheckerboard="0"
     inkscape:document-units="mm"
     showgrid="false"
     inkscape:zoom="0.68595679"
     inkscape:cx="396.52643"
     inkscape:cy="554.69966"
     inkscape:window-width="1920"
     inkscape:window-height="974"
     inkscape:window-x="-11"
     inkscape:window-y="-11"
     inkscape:window-maximized="1"
     inkscape:current-layer="layer1" />
  <defs
     id="defs2" />
  <g
     inkscape:label="Layer 1"
     inkscape:groupmode="layer"
     id="layer1">
    <path
       style="fill:#ffffff;stroke-width:0.264583"
       d="m 90.849701,144.12453 c 0,-0.83714 0.15796,-0.88083 3.96875,-1.09761 8.973419,-0.51049 21.052489,-2.53169 30.266459,-5.06452 23.58705,-6.48386 41.12677,-18.64302 45.37282,-31.45407 1.51495,-4.57084 1.30313,-8.042179 -0.74265,-12.170829 -4.44329,-8.967137 -17.24587,-15.302637 -36.33361,-17.980087 -1.10755,-0.15536 -1.25677,-0.2529 -1.25677,-0.82154 0,-0.60277 0.0923,-0.64524 1.40232,-0.64524 0.77128,0 3.0037,0.12595 4.96094,0.27989 16.94547,1.3328 30.06071,5.04924 39.05895,11.06807 11.93042,7.980117 14.29461,20.323526 5.90409,30.825146 -7.69328,9.62894 -22.47716,17.67236 -41.40442,22.52677 -3.79374,0.97301 -6.03953,1.45319 -13.36146,2.85685 -1.21869,0.23363 3.25898,-0.12452 8.06979,-0.64547 21.13007,-2.28811 39.27603,-7.80403 52.16913,-15.85809 12.67849,-7.92002 19.64299,-18.29105 18.3741,-27.361419 -0.85419,-6.10604 -3.405,-10.929497 -8.48706,-16.048627 -8.105,-8.16413 -21.71709,-14.7995 -39.81964,-19.41056 -20.66714,-5.26432 -41.42521,-6.71797 -62.331019,-4.36495 -35.21066,3.96307 -63.630089,17.58038 -70.34283,33.705097 -2.700954,6.48798 -1.954202,12.664659 2.363653,19.550629 1.851035,2.95198 1.98338,3.62249 0.715007,3.62249 -0.754692,0 -1.26729,-0.40961 -4.056091,-3.24115 -3.628062,-3.68365 -4.829996,-5.10994 -6.521731,-7.73906 -2.561048,-3.98012 -4.358627,-8.279999 -5.11574,-12.237079 -0.486542,-2.542927 -0.483978,-8.450477 0.0048,-11.004957 1.967077,-10.28098 8.859129,-19.46509 21.315154,-28.40384 3.513592,-2.52145 8.693763,-5.51742 13.890614,-8.03369 17.678064,-8.55958 37.814194,-13.65507 62.309373,-15.76754 6.69955,-0.57778 27.3872,-0.66603 33.86667,-0.14448 22.74217,1.83056 39.80903,5.39884 55.5625,11.6168 13.58177,5.36078 24.27013,12.02719 32.20347,20.08556 12.24416,12.43712 15.24602,26.45114 8.52855,39.815116 -3.7613,7.48287 -11.13605,15.35582 -19.82994,21.16954 -18.34781,12.26944 -42.23973,19.57226 -72.15705,22.05559 -10.62554,0.88199 -32.67364,1.12714 -33.16284,0.36873 -0.0831,-0.12882 -1.47568,-0.1121 -3.175,0.0381 -1.66484,0.14718 -7.343,0.34399 -12.61813,0.43737 l -9.591149,0.16978 v -0.69673 z m -28.83958,-12.06118 c 0,-0.41099 12.26044,-36.188569 13.26809,-38.718039 l 0.28986,-0.7276 h 3.67206 c 3.4699,0 3.67208,0.0285 3.67208,0.51825 0,0.49333 0.0653,0.48546 1.35782,-0.16375 1.0062,-0.50539 1.91404,-0.71605 3.50573,-0.81351 2.87088,-0.17577 4.15202,0.20024 5.59345,1.64167 1.55498,1.55499 1.97941,3.05961 1.97493,7.001299 -0.008,7.12841 -2.43733,13.35318 -6.98528,17.89936 -2.81217,2.81107 -4.42428,3.61561 -7.54194,3.76388 -2.87027,0.1365 -4.23558,-0.22974 -5.56267,-1.49218 l -1.04453,-0.99364 -2.18635,6.29535 -2.18635,6.29535 h -3.91345 c -3.67852,0 -3.91345,-0.0304 -3.91345,-0.50644 z m 20.04557,-17.47018 c 1.95231,-1.41424 4.10633,-5.27673 5.08564,-9.11935 0.66195,-2.59733 0.67173,-3.7412 0.0421,-4.92274 -1.0201,-1.914249 -2.43242,-2.018759 -4.32276,-0.31988 -2.99238,2.6893 -5.50657,9.18442 -4.86956,12.57995 0.22232,1.18508 1.48032,2.56073 2.34172,2.56073 0.35635,0 1.13164,-0.35042 1.72287,-0.77871 z m 31.545669,17.24902 c -0.001,-0.40018 3.00092,-9.3894 6.67179,-19.97604 l 6.6743,-19.248439 h 3.77925 c 3.29477,0 3.77925,0.0545 3.77925,0.42518 0,0.30512 0.13075,0.36843 0.46302,0.22419 2.70249,-1.17314 5.40511,-1.49307 7.55936,-0.89487 1.39058,0.38614 2.90481,1.83201 3.65381,3.48886 0.56433,1.24836 0.62499,1.74354 0.60742,4.958719 -0.0216,3.94466 -0.50919,6.50274 -1.95345,10.24785 -1.68789,4.37682 -5.36495,8.81168 -8.64476,10.42633 -1.47846,0.72784 -2.11696,0.87932 -4.10757,0.97449 -2.70967,0.12955 -4.16941,-0.28306 -5.54394,-1.56706 -0.46077,-0.43042 -0.87685,-0.74351 -0.92461,-0.69575 -0.0478,0.0478 -0.91505,2.46229 -1.92729,5.3656 -1.01225,2.90331 -1.98051,5.6657 -2.15168,6.13865 l -0.31124,0.85989 h -3.81058 -3.81057 l -0.002,-0.7276 z m 19.29994,-16.85832 c 2.71566,-1.40432 6.10471,-8.32574 6.10158,-12.46119 -0.001,-1.43313 -0.6572,-2.793029 -1.58787,-3.291109 -1.9694,-1.05399 -5.45087,2.624839 -7.1456,7.550679 -0.73588,2.13886 -1.11693,4.53034 -0.91362,5.73376 0.20427,1.20907 1.51917,2.85587 2.28029,2.85587 0.2832,0 0.85254,-0.17461 1.26522,-0.38801 z m -83.194307,7.15222 c -0.582083,-0.21227 -1.495097,-0.87292 -2.02892,-1.4681 -1.043588,-1.16355 -1.048821,-1.16243 -1.528731,0.32628 l -0.319844,0.99219 h -3.551356 -3.551357 v -0.80472 c 0,-0.44259 2.976563,-9.38393 6.614583,-19.86965 3.638021,-10.485716 6.614584,-19.112816 6.614584,-19.171326 0,-0.0585 1.785937,-0.10638 3.96875,-0.10638 3.664029,0 3.968749,0.037 3.968749,0.48237 0,0.26531 -0.77391,2.71355 -1.71979,5.44053 -0.94589,2.72699 -1.71979,5.004157 -1.71979,5.060377 0,0.0562 0.44648,-0.0951 0.99218,-0.33628 0.71273,-0.31499 1.78034,-0.4416 3.79041,-0.44952 2.66334,-0.0105 2.86081,0.0277 4.09698,0.79154 0.99535,0.61506 1.48516,1.16737 2.09658,2.36408 0.78705,1.54048 0.7975,1.61526 0.77501,5.547439 -0.0245,4.28034 -0.3638,6.09 -1.84806,9.85616 -1.89455,4.80722 -5.31188,8.98822 -8.71248,10.65945 -1.651156,0.81147 -2.124766,0.91896 -4.365623,0.99086 -1.722718,0.0553 -2.846519,-0.0408 -3.571875,-0.3053 z m 4.590926,-7.14077 c 2.707302,-1.4 6.153372,-8.24584 6.201992,-12.32065 0.0166,-1.38948 -0.60197,-2.724709 -1.55,-3.345879 -2.5801,-1.69055 -7.058385,4.192049 -8.337873,10.952489 -0.270965,1.4317 -0.252098,1.81697 0.139144,2.84142 0.485521,1.27132 1.490657,2.24918 2.311924,2.24918 0.278643,0 0.834308,-0.16946 1.234813,-0.37656 z m 38.668452,6.20894 c 0,-0.43021 2.69226,-8.55623 5.9828,-18.05781 3.290539,-9.501589 6.277859,-18.138816 6.638489,-19.193836 l 0.65569,-1.91823 h 3.81255 3.81255 v 0.77372 c 0,0.58541 -3.72022,11.888917 -5.18784,15.762727 -0.11026,0.29105 1.3547,-0.92934 3.25547,-2.71197 l 3.45595,-3.24115 h 4.67893 4.67894 l -0.0829,0.73536 c -0.063,0.55898 -0.97141,1.55339 -3.78708,4.14574 -2.03729,1.8757 -4.44934,4.115519 -5.3601,4.977359 l -1.65594,1.567 0.79604,7.8665 c 0.43782,4.32658 0.79604,8.36382 0.79604,8.97165 v 1.10514 h -3.83646 c -3.47451,0 -3.83717,-0.0437 -3.84399,-0.46302 -0.004,-0.25466 -0.17935,-2.66568 -0.38934,-5.35781 -0.20999,-2.69214 -0.3852,-5.1124 -0.38934,-5.37837 -0.006,-0.36214 -0.43587,-0.0964 -1.71309,1.05833 l -1.70556,1.54191 -1.50384,4.29948 -1.50385,4.29948 h -3.802059 -3.80205 z"
       id="path77" />
  </g>
</svg>
